<mxfile host="app.diagrams.net" modified="2022-10-26T07:52:31.467Z" agent="5.0 (Windows NT 10.0; Win64; x64) AppleWebKit/537.36 (KHTML, like Gecko) Chrome/106.0.0.0 Safari/537.36 Edg/106.0.1370.52" etag="7nnC9R9LhWVUkykhihpy" version="20.5.1" type="github">
  <diagram id="GUWWXrYv7TFzIVzRqDlY" name="Page-1">
    <mxGraphModel dx="2426" dy="1978" grid="1" gridSize="10" guides="1" tooltips="1" connect="1" arrows="1" fold="1" page="1" pageScale="1" pageWidth="827" pageHeight="1169" math="0" shadow="0">
      <root>
        <mxCell id="0" />
        <mxCell id="1" parent="0" />
        <mxCell id="mpOMUe2CQrQYa7WsvBK0-504" style="edgeStyle=orthogonalEdgeStyle;rounded=0;orthogonalLoop=1;jettySize=auto;html=1;fontSize=12;endArrow=classic;endFill=1;" edge="1" parent="1" source="A_WAUtJpo3-AmnUpiRZP-756" target="A_WAUtJpo3-AmnUpiRZP-764">
          <mxGeometry relative="1" as="geometry">
            <Array as="points">
              <mxPoint x="2665" y="847.5" />
              <mxPoint x="4065" y="847.5" />
            </Array>
          </mxGeometry>
        </mxCell>
        <mxCell id="A_WAUtJpo3-AmnUpiRZP-756" value="Ganges med antallet af årssøer på CHR nummeret" style="rounded=0;whiteSpace=wrap;shadow=0;glass=0;sketch=0;strokeColor=#000000;fontSize=12;fillColor=#FFFFFF;" parent="1" vertex="1">
          <mxGeometry x="2582.75" y="649.87" width="164.5" height="65.25" as="geometry" />
        </mxCell>
        <mxCell id="A_WAUtJpo3-AmnUpiRZP-764" value="Samlet bedriftsaftryk for grise m/u LUC&lt;br style=&quot;font-size: 30px;&quot;&gt;på CVR nummeret" style="ellipse;whiteSpace=wrap;html=1;fontSize=30;fillColor=#fff2cc;strokeColor=#d6b656;" parent="1" vertex="1">
          <mxGeometry x="3755" y="917.5" width="620" height="210" as="geometry" />
        </mxCell>
        <mxCell id="mpOMUe2CQrQYa7WsvBK0-1" value="CHR 111111" style="rounded=1;whiteSpace=wrap;html=1;shadow=0;glass=0;sketch=0;strokeColor=#808080;fontSize=62;fillColor=default;gradientColor=none;rotation=0;opacity=90;" vertex="1" parent="1">
          <mxGeometry x="2550" y="161" width="980" height="77.5" as="geometry" />
        </mxCell>
        <mxCell id="mpOMUe2CQrQYa7WsvBK0-135" value="CVR 12345678" style="rounded=1;whiteSpace=wrap;html=1;shadow=0;glass=0;sketch=0;strokeColor=#808080;fontSize=62;fillColor=default;gradientColor=none;rotation=0;opacity=90;" vertex="1" parent="1">
          <mxGeometry x="2550" y="41" width="3030" height="77.5" as="geometry" />
        </mxCell>
        <mxCell id="mpOMUe2CQrQYa7WsvBK0-138" value="Årssoen" style="rounded=1;whiteSpace=wrap;html=1;fillColor=#dae8fc;fontSize=25;strokeColor=#6c8ebf;" vertex="1" parent="1">
          <mxGeometry x="2550" y="249.75" width="230" height="60" as="geometry" />
        </mxCell>
        <mxCell id="mpOMUe2CQrQYa7WsvBK0-407" style="edgeStyle=orthogonalEdgeStyle;rounded=0;orthogonalLoop=1;jettySize=auto;html=1;fontSize=12;endArrow=classic;endFill=1;fillColor=#dae8fc;strokeColor=#6c8ebf;" edge="1" parent="1" source="mpOMUe2CQrQYa7WsvBK0-353" target="mpOMUe2CQrQYa7WsvBK0-405">
          <mxGeometry relative="1" as="geometry" />
        </mxCell>
        <mxCell id="mpOMUe2CQrQYa7WsvBK0-353" value="Vægtet gennemsnit: årssoens CO2e aftryk m/u LUC&lt;br&gt;&amp;nbsp;på CHR nummeret" style="ellipse;whiteSpace=wrap;html=1;aspect=fixed;shadow=0;fontFamily=Helvetica;fontSize=12;align=center;strokeColor=#6c8ebf;fillColor=#dae8fc;sketch=0;" vertex="1" parent="1">
          <mxGeometry x="2550" y="333" width="110" height="110" as="geometry" />
        </mxCell>
        <mxCell id="mpOMUe2CQrQYa7WsvBK0-406" style="edgeStyle=orthogonalEdgeStyle;rounded=0;orthogonalLoop=1;jettySize=auto;html=1;fontSize=12;endArrow=classic;endFill=1;fillColor=#dae8fc;strokeColor=#6c8ebf;" edge="1" parent="1" source="mpOMUe2CQrQYa7WsvBK0-357" target="mpOMUe2CQrQYa7WsvBK0-405">
          <mxGeometry relative="1" as="geometry" />
        </mxCell>
        <mxCell id="mpOMUe2CQrQYa7WsvBK0-357" value="Vægtet gennemsnit: egenproduceret korn til årssoen&lt;br&gt;&amp;nbsp;på CHR nummeret" style="ellipse;whiteSpace=wrap;html=1;aspect=fixed;shadow=0;fontFamily=Helvetica;fontSize=12;align=center;strokeColor=#6c8ebf;fillColor=#dae8fc;sketch=0;" vertex="1" parent="1">
          <mxGeometry x="2670" y="333" width="110" height="110" as="geometry" />
        </mxCell>
        <mxCell id="mpOMUe2CQrQYa7WsvBK0-408" style="edgeStyle=orthogonalEdgeStyle;rounded=0;orthogonalLoop=1;jettySize=auto;html=1;fontSize=12;endArrow=none;endFill=0;fillColor=#dae8fc;strokeColor=#6c8ebf;" edge="1" parent="1" source="mpOMUe2CQrQYa7WsvBK0-405" target="A_WAUtJpo3-AmnUpiRZP-756">
          <mxGeometry relative="1" as="geometry" />
        </mxCell>
        <mxCell id="mpOMUe2CQrQYa7WsvBK0-405" value="Vægtet gennemsnit: årssoens aftryk m/u LUC uden egenproduceret korn" style="ellipse;whiteSpace=wrap;html=1;aspect=fixed;shadow=0;fontFamily=Helvetica;fontSize=12;align=center;strokeColor=#6c8ebf;fillColor=#dae8fc;sketch=0;" vertex="1" parent="1">
          <mxGeometry x="2600" y="487.5" width="130" height="130" as="geometry" />
        </mxCell>
        <mxCell id="mpOMUe2CQrQYa7WsvBK0-503" style="edgeStyle=orthogonalEdgeStyle;rounded=0;orthogonalLoop=1;jettySize=auto;html=1;fontSize=12;endArrow=classic;endFill=1;" edge="1" parent="1" source="mpOMUe2CQrQYa7WsvBK0-412" target="A_WAUtJpo3-AmnUpiRZP-764">
          <mxGeometry relative="1" as="geometry">
            <Array as="points">
              <mxPoint x="2915" y="847.5" />
              <mxPoint x="4065" y="847.5" />
            </Array>
          </mxGeometry>
        </mxCell>
        <mxCell id="mpOMUe2CQrQYa7WsvBK0-412" value="Ganges med antallet af smågrise på CHR nummeret" style="rounded=0;whiteSpace=wrap;shadow=0;glass=0;sketch=0;strokeColor=#000000;fontSize=12;fillColor=#FFFFFF;" vertex="1" parent="1">
          <mxGeometry x="2832.75" y="649.87" width="164.5" height="65.25" as="geometry" />
        </mxCell>
        <mxCell id="mpOMUe2CQrQYa7WsvBK0-413" value="Smågrisen" style="rounded=1;whiteSpace=wrap;html=1;fillColor=#e1d5e7;fontSize=25;strokeColor=#9673a6;" vertex="1" parent="1">
          <mxGeometry x="2800" y="249.75" width="230" height="60" as="geometry" />
        </mxCell>
        <mxCell id="mpOMUe2CQrQYa7WsvBK0-414" style="edgeStyle=orthogonalEdgeStyle;rounded=0;orthogonalLoop=1;jettySize=auto;html=1;fontSize=12;endArrow=classic;endFill=1;fillColor=#ffe6cc;strokeColor=#d79b00;" edge="1" parent="1" source="mpOMUe2CQrQYa7WsvBK0-415" target="mpOMUe2CQrQYa7WsvBK0-419">
          <mxGeometry relative="1" as="geometry" />
        </mxCell>
        <mxCell id="mpOMUe2CQrQYa7WsvBK0-415" value="Vægtet gennemsnit: smågrisens CO2e aftryk m/u LUC&lt;br&gt;&amp;nbsp;på CHR nummeret" style="ellipse;whiteSpace=wrap;html=1;aspect=fixed;shadow=0;fontFamily=Helvetica;fontSize=12;align=center;strokeColor=#d79b00;fillColor=#ffe6cc;sketch=0;" vertex="1" parent="1">
          <mxGeometry x="2800" y="333" width="110" height="110" as="geometry" />
        </mxCell>
        <mxCell id="mpOMUe2CQrQYa7WsvBK0-416" style="edgeStyle=orthogonalEdgeStyle;rounded=0;orthogonalLoop=1;jettySize=auto;html=1;fontSize=12;endArrow=classic;endFill=1;fillColor=#ffe6cc;strokeColor=#d79b00;" edge="1" parent="1" source="mpOMUe2CQrQYa7WsvBK0-417" target="mpOMUe2CQrQYa7WsvBK0-419">
          <mxGeometry relative="1" as="geometry" />
        </mxCell>
        <mxCell id="mpOMUe2CQrQYa7WsvBK0-417" value="Vægtet gennemsnit: egenproduceret korn til smågrisen&lt;br&gt;&amp;nbsp;på CHR nummeret" style="ellipse;whiteSpace=wrap;html=1;aspect=fixed;shadow=0;fontFamily=Helvetica;fontSize=12;align=center;strokeColor=#d79b00;fillColor=#ffe6cc;sketch=0;" vertex="1" parent="1">
          <mxGeometry x="2920" y="333" width="110" height="110" as="geometry" />
        </mxCell>
        <mxCell id="mpOMUe2CQrQYa7WsvBK0-418" style="edgeStyle=orthogonalEdgeStyle;rounded=0;orthogonalLoop=1;jettySize=auto;html=1;fontSize=12;endArrow=none;endFill=0;fillColor=#ffe6cc;strokeColor=#d79b00;" edge="1" parent="1" source="mpOMUe2CQrQYa7WsvBK0-419" target="mpOMUe2CQrQYa7WsvBK0-412">
          <mxGeometry relative="1" as="geometry" />
        </mxCell>
        <mxCell id="mpOMUe2CQrQYa7WsvBK0-419" value="Vægtet gennemsnit: smågrisens aftryk m/u LUC uden egenproduceret korn" style="ellipse;whiteSpace=wrap;html=1;aspect=fixed;shadow=0;fontFamily=Helvetica;fontSize=12;align=center;strokeColor=#d79b00;fillColor=#ffe6cc;sketch=0;" vertex="1" parent="1">
          <mxGeometry x="2850" y="487.5" width="130" height="130" as="geometry" />
        </mxCell>
        <mxCell id="mpOMUe2CQrQYa7WsvBK0-505" style="edgeStyle=orthogonalEdgeStyle;rounded=0;orthogonalLoop=1;jettySize=auto;html=1;fontSize=12;endArrow=classic;endFill=1;" edge="1" parent="1" source="mpOMUe2CQrQYa7WsvBK0-420" target="A_WAUtJpo3-AmnUpiRZP-764">
          <mxGeometry relative="1" as="geometry">
            <Array as="points">
              <mxPoint x="3165" y="847.5" />
              <mxPoint x="4065" y="847.5" />
            </Array>
          </mxGeometry>
        </mxCell>
        <mxCell id="mpOMUe2CQrQYa7WsvBK0-420" value="Ganges med antallet af slagtegrise på CHR nummeret" style="rounded=0;whiteSpace=wrap;shadow=0;glass=0;sketch=0;strokeColor=#000000;fontSize=12;fillColor=#FFFFFF;" vertex="1" parent="1">
          <mxGeometry x="3082.75" y="649.87" width="164.5" height="65.25" as="geometry" />
        </mxCell>
        <mxCell id="mpOMUe2CQrQYa7WsvBK0-421" value="Slagtegrisen" style="rounded=1;whiteSpace=wrap;html=1;fillColor=#d5e8d4;fontSize=25;strokeColor=#82b366;" vertex="1" parent="1">
          <mxGeometry x="3050" y="249.75" width="230" height="60" as="geometry" />
        </mxCell>
        <mxCell id="mpOMUe2CQrQYa7WsvBK0-422" style="edgeStyle=orthogonalEdgeStyle;rounded=0;orthogonalLoop=1;jettySize=auto;html=1;fontSize=12;endArrow=classic;endFill=1;fillColor=#d5e8d4;strokeColor=#82b366;" edge="1" parent="1" source="mpOMUe2CQrQYa7WsvBK0-423" target="mpOMUe2CQrQYa7WsvBK0-427">
          <mxGeometry relative="1" as="geometry" />
        </mxCell>
        <mxCell id="mpOMUe2CQrQYa7WsvBK0-423" value="Vægtet gennemsnit: slagtegrisens CO2e aftryk m/u LUC&lt;br&gt;&amp;nbsp;på CHR nummeret" style="ellipse;whiteSpace=wrap;html=1;aspect=fixed;shadow=0;fontFamily=Helvetica;fontSize=12;align=center;strokeColor=#82b366;fillColor=#d5e8d4;sketch=0;" vertex="1" parent="1">
          <mxGeometry x="3050" y="333" width="110" height="110" as="geometry" />
        </mxCell>
        <mxCell id="mpOMUe2CQrQYa7WsvBK0-424" style="edgeStyle=orthogonalEdgeStyle;rounded=0;orthogonalLoop=1;jettySize=auto;html=1;fontSize=12;endArrow=classic;endFill=1;fillColor=#d5e8d4;strokeColor=#82b366;" edge="1" parent="1" source="mpOMUe2CQrQYa7WsvBK0-425" target="mpOMUe2CQrQYa7WsvBK0-427">
          <mxGeometry relative="1" as="geometry" />
        </mxCell>
        <mxCell id="mpOMUe2CQrQYa7WsvBK0-425" value="Vægtet gennemsnit: egenproduceret korn til slagtegrisen&lt;br&gt;&amp;nbsp;på CHR nummeret" style="ellipse;whiteSpace=wrap;html=1;aspect=fixed;shadow=0;fontFamily=Helvetica;fontSize=12;align=center;strokeColor=#82b366;fillColor=#d5e8d4;sketch=0;" vertex="1" parent="1">
          <mxGeometry x="3170" y="333" width="110" height="110" as="geometry" />
        </mxCell>
        <mxCell id="mpOMUe2CQrQYa7WsvBK0-426" style="edgeStyle=orthogonalEdgeStyle;rounded=0;orthogonalLoop=1;jettySize=auto;html=1;fontSize=12;endArrow=none;endFill=0;fillColor=#d5e8d4;strokeColor=#82b366;" edge="1" parent="1" source="mpOMUe2CQrQYa7WsvBK0-427" target="mpOMUe2CQrQYa7WsvBK0-420">
          <mxGeometry relative="1" as="geometry" />
        </mxCell>
        <mxCell id="mpOMUe2CQrQYa7WsvBK0-427" value="Vægtet gennemsnit: slagtegrisens aftryk m/u LUC uden egenproduceret korn" style="ellipse;whiteSpace=wrap;html=1;aspect=fixed;shadow=0;fontFamily=Helvetica;fontSize=12;align=center;strokeColor=#82b366;fillColor=#d5e8d4;sketch=0;" vertex="1" parent="1">
          <mxGeometry x="3100" y="487.5" width="130" height="130" as="geometry" />
        </mxCell>
        <mxCell id="mpOMUe2CQrQYa7WsvBK0-506" style="edgeStyle=orthogonalEdgeStyle;rounded=0;orthogonalLoop=1;jettySize=auto;html=1;fontSize=12;endArrow=classic;endFill=1;" edge="1" parent="1" source="mpOMUe2CQrQYa7WsvBK0-428" target="A_WAUtJpo3-AmnUpiRZP-764">
          <mxGeometry relative="1" as="geometry">
            <Array as="points">
              <mxPoint x="3415" y="847.5" />
              <mxPoint x="4065" y="847.5" />
            </Array>
          </mxGeometry>
        </mxCell>
        <mxCell id="mpOMUe2CQrQYa7WsvBK0-428" value="Ganges med antallet af FRATS på CHR nummeret" style="rounded=0;whiteSpace=wrap;shadow=0;glass=0;sketch=0;strokeColor=#000000;fontSize=12;fillColor=#FFFFFF;" vertex="1" parent="1">
          <mxGeometry x="3332.75" y="649.87" width="164.5" height="65.25" as="geometry" />
        </mxCell>
        <mxCell id="mpOMUe2CQrQYa7WsvBK0-429" value="FRATS grisen" style="rounded=1;whiteSpace=wrap;html=1;fillColor=#ffe6cc;fontSize=25;strokeColor=#d79b00;" vertex="1" parent="1">
          <mxGeometry x="3300" y="249.75" width="230" height="60" as="geometry" />
        </mxCell>
        <mxCell id="mpOMUe2CQrQYa7WsvBK0-430" style="edgeStyle=orthogonalEdgeStyle;rounded=0;orthogonalLoop=1;jettySize=auto;html=1;fontSize=12;endArrow=classic;endFill=1;fillColor=#ffe6cc;strokeColor=#d79b00;" edge="1" parent="1" source="mpOMUe2CQrQYa7WsvBK0-431" target="mpOMUe2CQrQYa7WsvBK0-435">
          <mxGeometry relative="1" as="geometry" />
        </mxCell>
        <mxCell id="mpOMUe2CQrQYa7WsvBK0-431" value="Vægtet gennemsnit: FRATS CO2e aftryk m/u LUC&lt;br&gt;&amp;nbsp;på CHR nummeret" style="ellipse;whiteSpace=wrap;html=1;aspect=fixed;shadow=0;fontFamily=Helvetica;fontSize=12;align=center;strokeColor=#d79b00;fillColor=#ffe6cc;sketch=0;" vertex="1" parent="1">
          <mxGeometry x="3300" y="333" width="110" height="110" as="geometry" />
        </mxCell>
        <mxCell id="mpOMUe2CQrQYa7WsvBK0-432" style="edgeStyle=orthogonalEdgeStyle;rounded=0;orthogonalLoop=1;jettySize=auto;html=1;fontSize=12;endArrow=classic;endFill=1;fillColor=#ffe6cc;strokeColor=#d79b00;" edge="1" parent="1" source="mpOMUe2CQrQYa7WsvBK0-433" target="mpOMUe2CQrQYa7WsvBK0-435">
          <mxGeometry relative="1" as="geometry" />
        </mxCell>
        <mxCell id="mpOMUe2CQrQYa7WsvBK0-433" value="Vægtet gennemsnit: egenproduceret korn til FRATS&lt;br&gt;&amp;nbsp;på CHR nummeret" style="ellipse;whiteSpace=wrap;html=1;aspect=fixed;shadow=0;fontFamily=Helvetica;fontSize=12;align=center;strokeColor=#d79b00;fillColor=#ffe6cc;sketch=0;" vertex="1" parent="1">
          <mxGeometry x="3420" y="333" width="110" height="110" as="geometry" />
        </mxCell>
        <mxCell id="mpOMUe2CQrQYa7WsvBK0-434" style="edgeStyle=orthogonalEdgeStyle;rounded=0;orthogonalLoop=1;jettySize=auto;html=1;fontSize=12;endArrow=none;endFill=0;fillColor=#ffe6cc;strokeColor=#d79b00;" edge="1" parent="1" source="mpOMUe2CQrQYa7WsvBK0-435" target="mpOMUe2CQrQYa7WsvBK0-428">
          <mxGeometry relative="1" as="geometry" />
        </mxCell>
        <mxCell id="mpOMUe2CQrQYa7WsvBK0-435" value="Vægtet gennemsnit: FRATS aftryk m/u LUC uden egenproduceret korn" style="ellipse;whiteSpace=wrap;html=1;aspect=fixed;shadow=0;fontFamily=Helvetica;fontSize=12;align=center;strokeColor=#d79b00;fillColor=#ffe6cc;sketch=0;" vertex="1" parent="1">
          <mxGeometry x="3350" y="487.5" width="130" height="130" as="geometry" />
        </mxCell>
        <mxCell id="mpOMUe2CQrQYa7WsvBK0-507" style="edgeStyle=orthogonalEdgeStyle;rounded=0;orthogonalLoop=1;jettySize=auto;html=1;fontSize=12;endArrow=classic;endFill=1;" edge="1" parent="1" source="mpOMUe2CQrQYa7WsvBK0-436" target="A_WAUtJpo3-AmnUpiRZP-764">
          <mxGeometry relative="1" as="geometry">
            <Array as="points">
              <mxPoint x="3685" y="847.5" />
              <mxPoint x="4065" y="847.5" />
            </Array>
          </mxGeometry>
        </mxCell>
        <mxCell id="mpOMUe2CQrQYa7WsvBK0-436" value="Ganges med antallet af årssøer på CHR nummeret" style="rounded=0;whiteSpace=wrap;shadow=0;glass=0;sketch=0;strokeColor=#000000;fontSize=12;fillColor=#FFFFFF;" vertex="1" parent="1">
          <mxGeometry x="3602.75" y="653.87" width="164.5" height="65.25" as="geometry" />
        </mxCell>
        <mxCell id="mpOMUe2CQrQYa7WsvBK0-437" value="CHR 222222" style="rounded=1;whiteSpace=wrap;html=1;shadow=0;glass=0;sketch=0;strokeColor=#808080;fontSize=62;fillColor=default;gradientColor=none;rotation=0;opacity=90;" vertex="1" parent="1">
          <mxGeometry x="3570" y="165" width="980" height="77.5" as="geometry" />
        </mxCell>
        <mxCell id="mpOMUe2CQrQYa7WsvBK0-438" value="Årssoen" style="rounded=1;whiteSpace=wrap;html=1;fillColor=#dae8fc;fontSize=25;strokeColor=#6c8ebf;" vertex="1" parent="1">
          <mxGeometry x="3570" y="253.75" width="230" height="60" as="geometry" />
        </mxCell>
        <mxCell id="mpOMUe2CQrQYa7WsvBK0-439" style="edgeStyle=orthogonalEdgeStyle;rounded=0;orthogonalLoop=1;jettySize=auto;html=1;fontSize=12;endArrow=classic;endFill=1;fillColor=#dae8fc;strokeColor=#6c8ebf;" edge="1" parent="1" source="mpOMUe2CQrQYa7WsvBK0-440" target="mpOMUe2CQrQYa7WsvBK0-444">
          <mxGeometry relative="1" as="geometry" />
        </mxCell>
        <mxCell id="mpOMUe2CQrQYa7WsvBK0-440" value="Vægtet gennemsnit: årssoens CO2e aftryk m/u LUC&lt;br&gt;&amp;nbsp;på CHR nummeret" style="ellipse;whiteSpace=wrap;html=1;aspect=fixed;shadow=0;fontFamily=Helvetica;fontSize=12;align=center;strokeColor=#6c8ebf;fillColor=#dae8fc;sketch=0;" vertex="1" parent="1">
          <mxGeometry x="3570" y="337" width="110" height="110" as="geometry" />
        </mxCell>
        <mxCell id="mpOMUe2CQrQYa7WsvBK0-441" style="edgeStyle=orthogonalEdgeStyle;rounded=0;orthogonalLoop=1;jettySize=auto;html=1;fontSize=12;endArrow=classic;endFill=1;fillColor=#dae8fc;strokeColor=#6c8ebf;" edge="1" parent="1" source="mpOMUe2CQrQYa7WsvBK0-442" target="mpOMUe2CQrQYa7WsvBK0-444">
          <mxGeometry relative="1" as="geometry" />
        </mxCell>
        <mxCell id="mpOMUe2CQrQYa7WsvBK0-442" value="Vægtet gennemsnit: egenproduceret korn til årssoen&lt;br&gt;&amp;nbsp;på CHR nummeret" style="ellipse;whiteSpace=wrap;html=1;aspect=fixed;shadow=0;fontFamily=Helvetica;fontSize=12;align=center;strokeColor=#6c8ebf;fillColor=#dae8fc;sketch=0;" vertex="1" parent="1">
          <mxGeometry x="3690" y="337" width="110" height="110" as="geometry" />
        </mxCell>
        <mxCell id="mpOMUe2CQrQYa7WsvBK0-443" style="edgeStyle=orthogonalEdgeStyle;rounded=0;orthogonalLoop=1;jettySize=auto;html=1;fontSize=12;endArrow=none;endFill=0;fillColor=#dae8fc;strokeColor=#6c8ebf;" edge="1" parent="1" source="mpOMUe2CQrQYa7WsvBK0-444" target="mpOMUe2CQrQYa7WsvBK0-436">
          <mxGeometry relative="1" as="geometry" />
        </mxCell>
        <mxCell id="mpOMUe2CQrQYa7WsvBK0-444" value="Vægtet gennemsnit: årssoens aftryk m/u LUC uden egenproduceret korn" style="ellipse;whiteSpace=wrap;html=1;aspect=fixed;shadow=0;fontFamily=Helvetica;fontSize=12;align=center;strokeColor=#6c8ebf;fillColor=#dae8fc;sketch=0;" vertex="1" parent="1">
          <mxGeometry x="3620" y="491.5" width="130" height="130" as="geometry" />
        </mxCell>
        <mxCell id="mpOMUe2CQrQYa7WsvBK0-508" style="edgeStyle=orthogonalEdgeStyle;rounded=0;orthogonalLoop=1;jettySize=auto;html=1;fontSize=12;endArrow=classic;endFill=1;" edge="1" parent="1" source="mpOMUe2CQrQYa7WsvBK0-445" target="A_WAUtJpo3-AmnUpiRZP-764">
          <mxGeometry relative="1" as="geometry">
            <Array as="points">
              <mxPoint x="3935" y="847.5" />
              <mxPoint x="4065" y="847.5" />
            </Array>
          </mxGeometry>
        </mxCell>
        <mxCell id="mpOMUe2CQrQYa7WsvBK0-445" value="Ganges med antallet af smågrise på CHR nummeret" style="rounded=0;whiteSpace=wrap;shadow=0;glass=0;sketch=0;strokeColor=#000000;fontSize=12;fillColor=#FFFFFF;" vertex="1" parent="1">
          <mxGeometry x="3852.75" y="653.87" width="164.5" height="65.25" as="geometry" />
        </mxCell>
        <mxCell id="mpOMUe2CQrQYa7WsvBK0-446" value="Smågrisen" style="rounded=1;whiteSpace=wrap;html=1;fillColor=#e1d5e7;fontSize=25;strokeColor=#9673a6;" vertex="1" parent="1">
          <mxGeometry x="3820" y="253.75" width="230" height="60" as="geometry" />
        </mxCell>
        <mxCell id="mpOMUe2CQrQYa7WsvBK0-447" style="edgeStyle=orthogonalEdgeStyle;rounded=0;orthogonalLoop=1;jettySize=auto;html=1;fontSize=12;endArrow=classic;endFill=1;fillColor=#e1d5e7;strokeColor=#9673a6;" edge="1" parent="1" source="mpOMUe2CQrQYa7WsvBK0-448" target="mpOMUe2CQrQYa7WsvBK0-452">
          <mxGeometry relative="1" as="geometry" />
        </mxCell>
        <mxCell id="mpOMUe2CQrQYa7WsvBK0-448" value="Vægtet gennemsnit: smågrisens CO2e aftryk m/u LUC&lt;br&gt;&amp;nbsp;på CHR nummeret" style="ellipse;whiteSpace=wrap;html=1;aspect=fixed;shadow=0;fontFamily=Helvetica;fontSize=12;align=center;strokeColor=#9673a6;fillColor=#e1d5e7;sketch=0;" vertex="1" parent="1">
          <mxGeometry x="3820" y="337" width="110" height="110" as="geometry" />
        </mxCell>
        <mxCell id="mpOMUe2CQrQYa7WsvBK0-449" style="edgeStyle=orthogonalEdgeStyle;rounded=0;orthogonalLoop=1;jettySize=auto;html=1;fontSize=12;endArrow=classic;endFill=1;fillColor=#e1d5e7;strokeColor=#9673a6;" edge="1" parent="1" source="mpOMUe2CQrQYa7WsvBK0-450" target="mpOMUe2CQrQYa7WsvBK0-452">
          <mxGeometry relative="1" as="geometry" />
        </mxCell>
        <mxCell id="mpOMUe2CQrQYa7WsvBK0-450" value="Vægtet gennemsnit: egenproduceret korn til smågrisen&lt;br&gt;&amp;nbsp;på CHR nummeret" style="ellipse;whiteSpace=wrap;html=1;aspect=fixed;shadow=0;fontFamily=Helvetica;fontSize=12;align=center;strokeColor=#9673a6;fillColor=#e1d5e7;sketch=0;" vertex="1" parent="1">
          <mxGeometry x="3940" y="337" width="110" height="110" as="geometry" />
        </mxCell>
        <mxCell id="mpOMUe2CQrQYa7WsvBK0-451" style="edgeStyle=orthogonalEdgeStyle;rounded=0;orthogonalLoop=1;jettySize=auto;html=1;fontSize=12;endArrow=none;endFill=0;fillColor=#e1d5e7;strokeColor=#9673a6;" edge="1" parent="1" source="mpOMUe2CQrQYa7WsvBK0-452" target="mpOMUe2CQrQYa7WsvBK0-445">
          <mxGeometry relative="1" as="geometry" />
        </mxCell>
        <mxCell id="mpOMUe2CQrQYa7WsvBK0-452" value="Vægtet gennemsnit: smågrisens aftryk m/u LUC uden egenproduceret korn" style="ellipse;whiteSpace=wrap;html=1;aspect=fixed;shadow=0;fontFamily=Helvetica;fontSize=12;align=center;strokeColor=#9673a6;fillColor=#e1d5e7;sketch=0;" vertex="1" parent="1">
          <mxGeometry x="3870" y="491.5" width="130" height="130" as="geometry" />
        </mxCell>
        <mxCell id="mpOMUe2CQrQYa7WsvBK0-509" style="edgeStyle=orthogonalEdgeStyle;rounded=0;orthogonalLoop=1;jettySize=auto;html=1;fontSize=12;endArrow=classic;endFill=1;" edge="1" parent="1">
          <mxGeometry relative="1" as="geometry">
            <mxPoint x="4185.0526315789475" y="717.1200000000003" as="sourcePoint" />
            <mxPoint x="4065" y="915.5" as="targetPoint" />
            <Array as="points">
              <mxPoint x="4185" y="848" />
              <mxPoint x="4065" y="848" />
            </Array>
          </mxGeometry>
        </mxCell>
        <mxCell id="mpOMUe2CQrQYa7WsvBK0-453" value="Ganges med antallet af slagtegrise på CHR nummeret" style="rounded=0;whiteSpace=wrap;shadow=0;glass=0;sketch=0;strokeColor=#000000;fontSize=12;fillColor=#FFFFFF;" vertex="1" parent="1">
          <mxGeometry x="4102.75" y="653.87" width="164.5" height="65.25" as="geometry" />
        </mxCell>
        <mxCell id="mpOMUe2CQrQYa7WsvBK0-454" value="Slagtegrisen" style="rounded=1;whiteSpace=wrap;html=1;fillColor=#d5e8d4;fontSize=25;strokeColor=#82b366;" vertex="1" parent="1">
          <mxGeometry x="4070" y="253.75" width="230" height="60" as="geometry" />
        </mxCell>
        <mxCell id="mpOMUe2CQrQYa7WsvBK0-455" style="edgeStyle=orthogonalEdgeStyle;rounded=0;orthogonalLoop=1;jettySize=auto;html=1;fontSize=12;endArrow=classic;endFill=1;fillColor=#d5e8d4;strokeColor=#82b366;" edge="1" parent="1" source="mpOMUe2CQrQYa7WsvBK0-456" target="mpOMUe2CQrQYa7WsvBK0-460">
          <mxGeometry relative="1" as="geometry" />
        </mxCell>
        <mxCell id="mpOMUe2CQrQYa7WsvBK0-456" value="Vægtet gennemsnit: slagtegrisens CO2e aftryk m/u LUC&lt;br&gt;&amp;nbsp;på CHR nummeret" style="ellipse;whiteSpace=wrap;html=1;aspect=fixed;shadow=0;fontFamily=Helvetica;fontSize=12;align=center;strokeColor=#82b366;fillColor=#d5e8d4;sketch=0;" vertex="1" parent="1">
          <mxGeometry x="4070" y="337" width="110" height="110" as="geometry" />
        </mxCell>
        <mxCell id="mpOMUe2CQrQYa7WsvBK0-457" style="edgeStyle=orthogonalEdgeStyle;rounded=0;orthogonalLoop=1;jettySize=auto;html=1;fontSize=12;endArrow=classic;endFill=1;fillColor=#d5e8d4;strokeColor=#82b366;" edge="1" parent="1" source="mpOMUe2CQrQYa7WsvBK0-458" target="mpOMUe2CQrQYa7WsvBK0-460">
          <mxGeometry relative="1" as="geometry" />
        </mxCell>
        <mxCell id="mpOMUe2CQrQYa7WsvBK0-458" value="Vægtet gennemsnit: egenproduceret korn til slagtegrisen&lt;br&gt;&amp;nbsp;på CHR nummeret" style="ellipse;whiteSpace=wrap;html=1;aspect=fixed;shadow=0;fontFamily=Helvetica;fontSize=12;align=center;strokeColor=#82b366;fillColor=#d5e8d4;sketch=0;" vertex="1" parent="1">
          <mxGeometry x="4190" y="337" width="110" height="110" as="geometry" />
        </mxCell>
        <mxCell id="mpOMUe2CQrQYa7WsvBK0-459" style="edgeStyle=orthogonalEdgeStyle;rounded=0;orthogonalLoop=1;jettySize=auto;html=1;fontSize=12;endArrow=none;endFill=0;fillColor=#d5e8d4;strokeColor=#82b366;" edge="1" parent="1" source="mpOMUe2CQrQYa7WsvBK0-460" target="mpOMUe2CQrQYa7WsvBK0-453">
          <mxGeometry relative="1" as="geometry" />
        </mxCell>
        <mxCell id="mpOMUe2CQrQYa7WsvBK0-460" value="Vægtet gennemsnit: slagtegrisens aftryk m/u LUC uden egenproduceret korn" style="ellipse;whiteSpace=wrap;html=1;aspect=fixed;shadow=0;fontFamily=Helvetica;fontSize=12;align=center;strokeColor=#82b366;fillColor=#d5e8d4;sketch=0;" vertex="1" parent="1">
          <mxGeometry x="4120" y="491.5" width="130" height="130" as="geometry" />
        </mxCell>
        <mxCell id="mpOMUe2CQrQYa7WsvBK0-510" style="edgeStyle=orthogonalEdgeStyle;rounded=0;orthogonalLoop=1;jettySize=auto;html=1;fontSize=12;endArrow=classic;endFill=1;" edge="1" parent="1">
          <mxGeometry relative="1" as="geometry">
            <mxPoint x="4435.0526315789475" y="718.1200000000003" as="sourcePoint" />
            <mxPoint x="4065" y="916.5" as="targetPoint" />
            <Array as="points">
              <mxPoint x="4435" y="849" />
              <mxPoint x="4065" y="849" />
            </Array>
          </mxGeometry>
        </mxCell>
        <mxCell id="mpOMUe2CQrQYa7WsvBK0-461" value="Ganges med antallet af FRATS på CHR nummeret" style="rounded=0;whiteSpace=wrap;shadow=0;glass=0;sketch=0;strokeColor=#000000;fontSize=12;fillColor=#FFFFFF;" vertex="1" parent="1">
          <mxGeometry x="4352.75" y="653.87" width="164.5" height="65.25" as="geometry" />
        </mxCell>
        <mxCell id="mpOMUe2CQrQYa7WsvBK0-462" value="FRATS grisen" style="rounded=1;whiteSpace=wrap;html=1;fillColor=#ffe6cc;fontSize=25;strokeColor=#d79b00;" vertex="1" parent="1">
          <mxGeometry x="4320" y="253.75" width="230" height="60" as="geometry" />
        </mxCell>
        <mxCell id="mpOMUe2CQrQYa7WsvBK0-463" style="edgeStyle=orthogonalEdgeStyle;rounded=0;orthogonalLoop=1;jettySize=auto;html=1;fontSize=12;endArrow=classic;endFill=1;fillColor=#ffe6cc;strokeColor=#d79b00;" edge="1" parent="1" source="mpOMUe2CQrQYa7WsvBK0-464" target="mpOMUe2CQrQYa7WsvBK0-468">
          <mxGeometry relative="1" as="geometry" />
        </mxCell>
        <mxCell id="mpOMUe2CQrQYa7WsvBK0-464" value="Vægtet gennemsnit: FRATS CO2e aftryk m/u LUC&lt;br&gt;&amp;nbsp;på CHR nummeret" style="ellipse;whiteSpace=wrap;html=1;aspect=fixed;shadow=0;fontFamily=Helvetica;fontSize=12;align=center;strokeColor=#d79b00;fillColor=#ffe6cc;sketch=0;" vertex="1" parent="1">
          <mxGeometry x="4320" y="337" width="110" height="110" as="geometry" />
        </mxCell>
        <mxCell id="mpOMUe2CQrQYa7WsvBK0-465" style="edgeStyle=orthogonalEdgeStyle;rounded=0;orthogonalLoop=1;jettySize=auto;html=1;fontSize=12;endArrow=classic;endFill=1;fillColor=#ffe6cc;strokeColor=#d79b00;" edge="1" parent="1" source="mpOMUe2CQrQYa7WsvBK0-466" target="mpOMUe2CQrQYa7WsvBK0-468">
          <mxGeometry relative="1" as="geometry" />
        </mxCell>
        <mxCell id="mpOMUe2CQrQYa7WsvBK0-466" value="Vægtet gennemsnit: egenproduceret korn til FRATS&lt;br&gt;&amp;nbsp;på CHR nummeret" style="ellipse;whiteSpace=wrap;html=1;aspect=fixed;shadow=0;fontFamily=Helvetica;fontSize=12;align=center;strokeColor=#d79b00;fillColor=#ffe6cc;sketch=0;" vertex="1" parent="1">
          <mxGeometry x="4440" y="337" width="110" height="110" as="geometry" />
        </mxCell>
        <mxCell id="mpOMUe2CQrQYa7WsvBK0-467" style="edgeStyle=orthogonalEdgeStyle;rounded=0;orthogonalLoop=1;jettySize=auto;html=1;fontSize=12;endArrow=none;endFill=0;fillColor=#ffe6cc;strokeColor=#d79b00;" edge="1" parent="1" source="mpOMUe2CQrQYa7WsvBK0-468" target="mpOMUe2CQrQYa7WsvBK0-461">
          <mxGeometry relative="1" as="geometry" />
        </mxCell>
        <mxCell id="mpOMUe2CQrQYa7WsvBK0-468" value="Vægtet gennemsnit: FRATS aftryk m/u LUC uden egenproduceret korn" style="ellipse;whiteSpace=wrap;html=1;aspect=fixed;shadow=0;fontFamily=Helvetica;fontSize=12;align=center;strokeColor=#d79b00;fillColor=#ffe6cc;sketch=0;" vertex="1" parent="1">
          <mxGeometry x="4370" y="491.5" width="130" height="130" as="geometry" />
        </mxCell>
        <mxCell id="mpOMUe2CQrQYa7WsvBK0-511" style="edgeStyle=orthogonalEdgeStyle;rounded=0;orthogonalLoop=1;jettySize=auto;html=1;fontSize=12;endArrow=classic;endFill=1;" edge="1" parent="1" source="mpOMUe2CQrQYa7WsvBK0-469" target="A_WAUtJpo3-AmnUpiRZP-764">
          <mxGeometry relative="1" as="geometry">
            <Array as="points">
              <mxPoint x="4715" y="850" />
              <mxPoint x="4065" y="850" />
            </Array>
          </mxGeometry>
        </mxCell>
        <mxCell id="mpOMUe2CQrQYa7WsvBK0-469" value="Ganges med antallet af årssøer på CHR nummeret" style="rounded=0;whiteSpace=wrap;shadow=0;glass=0;sketch=0;strokeColor=#000000;fontSize=12;fillColor=#FFFFFF;" vertex="1" parent="1">
          <mxGeometry x="4632.75" y="653.87" width="164.5" height="65.25" as="geometry" />
        </mxCell>
        <mxCell id="mpOMUe2CQrQYa7WsvBK0-470" value="CHR XXXXXX" style="rounded=1;whiteSpace=wrap;html=1;shadow=0;glass=0;sketch=0;strokeColor=#808080;fontSize=62;fillColor=default;gradientColor=none;rotation=0;opacity=90;" vertex="1" parent="1">
          <mxGeometry x="4600" y="165" width="980" height="77.5" as="geometry" />
        </mxCell>
        <mxCell id="mpOMUe2CQrQYa7WsvBK0-471" value="Årssoen" style="rounded=1;whiteSpace=wrap;html=1;fillColor=#dae8fc;fontSize=25;strokeColor=#6c8ebf;" vertex="1" parent="1">
          <mxGeometry x="4600" y="253.75" width="230" height="60" as="geometry" />
        </mxCell>
        <mxCell id="mpOMUe2CQrQYa7WsvBK0-472" style="edgeStyle=orthogonalEdgeStyle;rounded=0;orthogonalLoop=1;jettySize=auto;html=1;fontSize=12;endArrow=classic;endFill=1;fillColor=#dae8fc;strokeColor=#6c8ebf;" edge="1" parent="1" source="mpOMUe2CQrQYa7WsvBK0-473" target="mpOMUe2CQrQYa7WsvBK0-477">
          <mxGeometry relative="1" as="geometry" />
        </mxCell>
        <mxCell id="mpOMUe2CQrQYa7WsvBK0-473" value="Vægtet gennemsnit: årssoens CO2e aftryk m/u LUC&lt;br&gt;&amp;nbsp;på CHR nummeret" style="ellipse;whiteSpace=wrap;html=1;aspect=fixed;shadow=0;fontFamily=Helvetica;fontSize=12;align=center;strokeColor=#6c8ebf;fillColor=#dae8fc;sketch=0;" vertex="1" parent="1">
          <mxGeometry x="4600" y="337" width="110" height="110" as="geometry" />
        </mxCell>
        <mxCell id="mpOMUe2CQrQYa7WsvBK0-474" style="edgeStyle=orthogonalEdgeStyle;rounded=0;orthogonalLoop=1;jettySize=auto;html=1;fontSize=12;endArrow=classic;endFill=1;fillColor=#dae8fc;strokeColor=#6c8ebf;" edge="1" parent="1" source="mpOMUe2CQrQYa7WsvBK0-475" target="mpOMUe2CQrQYa7WsvBK0-477">
          <mxGeometry relative="1" as="geometry" />
        </mxCell>
        <mxCell id="mpOMUe2CQrQYa7WsvBK0-475" value="Vægtet gennemsnit: egenproduceret korn til årssoen&lt;br&gt;&amp;nbsp;på CHR nummeret" style="ellipse;whiteSpace=wrap;html=1;aspect=fixed;shadow=0;fontFamily=Helvetica;fontSize=12;align=center;strokeColor=#6c8ebf;fillColor=#dae8fc;sketch=0;" vertex="1" parent="1">
          <mxGeometry x="4720" y="337" width="110" height="110" as="geometry" />
        </mxCell>
        <mxCell id="mpOMUe2CQrQYa7WsvBK0-476" style="edgeStyle=orthogonalEdgeStyle;rounded=0;orthogonalLoop=1;jettySize=auto;html=1;fontSize=12;endArrow=none;endFill=0;fillColor=#dae8fc;strokeColor=#6c8ebf;" edge="1" parent="1" source="mpOMUe2CQrQYa7WsvBK0-477" target="mpOMUe2CQrQYa7WsvBK0-469">
          <mxGeometry relative="1" as="geometry" />
        </mxCell>
        <mxCell id="mpOMUe2CQrQYa7WsvBK0-477" value="Vægtet gennemsnit: årssoens aftryk m/u LUC uden egenproduceret korn" style="ellipse;whiteSpace=wrap;html=1;aspect=fixed;shadow=0;fontFamily=Helvetica;fontSize=12;align=center;strokeColor=#6c8ebf;fillColor=#dae8fc;sketch=0;" vertex="1" parent="1">
          <mxGeometry x="4650" y="491.5" width="130" height="130" as="geometry" />
        </mxCell>
        <mxCell id="mpOMUe2CQrQYa7WsvBK0-512" style="edgeStyle=orthogonalEdgeStyle;rounded=0;orthogonalLoop=1;jettySize=auto;html=1;fontSize=12;endArrow=classic;endFill=1;" edge="1" parent="1" source="mpOMUe2CQrQYa7WsvBK0-478" target="A_WAUtJpo3-AmnUpiRZP-764">
          <mxGeometry relative="1" as="geometry">
            <Array as="points">
              <mxPoint x="4965" y="850" />
              <mxPoint x="4065" y="850" />
            </Array>
          </mxGeometry>
        </mxCell>
        <mxCell id="mpOMUe2CQrQYa7WsvBK0-478" value="Ganges med antallet af smågrise på CHR nummeret" style="rounded=0;whiteSpace=wrap;shadow=0;glass=0;sketch=0;strokeColor=#000000;fontSize=12;fillColor=#FFFFFF;" vertex="1" parent="1">
          <mxGeometry x="4882.75" y="653.87" width="164.5" height="65.25" as="geometry" />
        </mxCell>
        <mxCell id="mpOMUe2CQrQYa7WsvBK0-479" value="Smågrisen" style="rounded=1;whiteSpace=wrap;html=1;fillColor=#e1d5e7;fontSize=25;strokeColor=#9673a6;" vertex="1" parent="1">
          <mxGeometry x="4850" y="253.75" width="230" height="60" as="geometry" />
        </mxCell>
        <mxCell id="mpOMUe2CQrQYa7WsvBK0-480" style="edgeStyle=orthogonalEdgeStyle;rounded=0;orthogonalLoop=1;jettySize=auto;html=1;fontSize=12;endArrow=classic;endFill=1;fillColor=#e1d5e7;strokeColor=#9673a6;" edge="1" parent="1" source="mpOMUe2CQrQYa7WsvBK0-481" target="mpOMUe2CQrQYa7WsvBK0-485">
          <mxGeometry relative="1" as="geometry" />
        </mxCell>
        <mxCell id="mpOMUe2CQrQYa7WsvBK0-481" value="Vægtet gennemsnit: smågrisens CO2e aftryk m/u LUC&lt;br&gt;&amp;nbsp;på CHR nummeret" style="ellipse;whiteSpace=wrap;html=1;aspect=fixed;shadow=0;fontFamily=Helvetica;fontSize=12;align=center;strokeColor=#9673a6;fillColor=#e1d5e7;sketch=0;" vertex="1" parent="1">
          <mxGeometry x="4850" y="337" width="110" height="110" as="geometry" />
        </mxCell>
        <mxCell id="mpOMUe2CQrQYa7WsvBK0-482" style="edgeStyle=orthogonalEdgeStyle;rounded=0;orthogonalLoop=1;jettySize=auto;html=1;fontSize=12;endArrow=classic;endFill=1;fillColor=#e1d5e7;strokeColor=#9673a6;" edge="1" parent="1" source="mpOMUe2CQrQYa7WsvBK0-483" target="mpOMUe2CQrQYa7WsvBK0-485">
          <mxGeometry relative="1" as="geometry" />
        </mxCell>
        <mxCell id="mpOMUe2CQrQYa7WsvBK0-483" value="Vægtet gennemsnit: egenproduceret korn til smågrisen&lt;br&gt;&amp;nbsp;på CHR nummeret" style="ellipse;whiteSpace=wrap;html=1;aspect=fixed;shadow=0;fontFamily=Helvetica;fontSize=12;align=center;strokeColor=#9673a6;fillColor=#e1d5e7;sketch=0;" vertex="1" parent="1">
          <mxGeometry x="4970" y="337" width="110" height="110" as="geometry" />
        </mxCell>
        <mxCell id="mpOMUe2CQrQYa7WsvBK0-484" style="edgeStyle=orthogonalEdgeStyle;rounded=0;orthogonalLoop=1;jettySize=auto;html=1;fontSize=12;endArrow=none;endFill=0;fillColor=#e1d5e7;strokeColor=#9673a6;" edge="1" parent="1" source="mpOMUe2CQrQYa7WsvBK0-485" target="mpOMUe2CQrQYa7WsvBK0-478">
          <mxGeometry relative="1" as="geometry" />
        </mxCell>
        <mxCell id="mpOMUe2CQrQYa7WsvBK0-485" value="Vægtet gennemsnit: smågrisens aftryk m/u LUC uden egenproduceret korn" style="ellipse;whiteSpace=wrap;html=1;aspect=fixed;shadow=0;fontFamily=Helvetica;fontSize=12;align=center;strokeColor=#9673a6;fillColor=#e1d5e7;sketch=0;" vertex="1" parent="1">
          <mxGeometry x="4900" y="491.5" width="130" height="130" as="geometry" />
        </mxCell>
        <mxCell id="mpOMUe2CQrQYa7WsvBK0-513" style="edgeStyle=orthogonalEdgeStyle;rounded=0;orthogonalLoop=1;jettySize=auto;html=1;fontSize=12;endArrow=classic;endFill=1;" edge="1" parent="1" source="mpOMUe2CQrQYa7WsvBK0-486" target="A_WAUtJpo3-AmnUpiRZP-764">
          <mxGeometry relative="1" as="geometry">
            <Array as="points">
              <mxPoint x="5215" y="850" />
              <mxPoint x="4065" y="850" />
            </Array>
          </mxGeometry>
        </mxCell>
        <mxCell id="mpOMUe2CQrQYa7WsvBK0-486" value="Ganges med antallet af slagtegrise på CHR nummeret" style="rounded=0;whiteSpace=wrap;shadow=0;glass=0;sketch=0;strokeColor=#000000;fontSize=12;fillColor=#FFFFFF;" vertex="1" parent="1">
          <mxGeometry x="5132.75" y="653.87" width="164.5" height="65.25" as="geometry" />
        </mxCell>
        <mxCell id="mpOMUe2CQrQYa7WsvBK0-487" value="Slagtegrisen" style="rounded=1;whiteSpace=wrap;html=1;fillColor=#d5e8d4;fontSize=25;strokeColor=#82b366;" vertex="1" parent="1">
          <mxGeometry x="5100" y="253.75" width="230" height="60" as="geometry" />
        </mxCell>
        <mxCell id="mpOMUe2CQrQYa7WsvBK0-488" style="edgeStyle=orthogonalEdgeStyle;rounded=0;orthogonalLoop=1;jettySize=auto;html=1;fontSize=12;endArrow=classic;endFill=1;fillColor=#d5e8d4;strokeColor=#82b366;" edge="1" parent="1" source="mpOMUe2CQrQYa7WsvBK0-489" target="mpOMUe2CQrQYa7WsvBK0-493">
          <mxGeometry relative="1" as="geometry" />
        </mxCell>
        <mxCell id="mpOMUe2CQrQYa7WsvBK0-489" value="Vægtet gennemsnit: slagtegrisens CO2e aftryk m/u LUC&lt;br&gt;&amp;nbsp;på CHR nummeret" style="ellipse;whiteSpace=wrap;html=1;aspect=fixed;shadow=0;fontFamily=Helvetica;fontSize=12;align=center;strokeColor=#82b366;fillColor=#d5e8d4;sketch=0;" vertex="1" parent="1">
          <mxGeometry x="5100" y="337" width="110" height="110" as="geometry" />
        </mxCell>
        <mxCell id="mpOMUe2CQrQYa7WsvBK0-490" style="edgeStyle=orthogonalEdgeStyle;rounded=0;orthogonalLoop=1;jettySize=auto;html=1;fontSize=12;endArrow=classic;endFill=1;fillColor=#d5e8d4;strokeColor=#82b366;" edge="1" parent="1" source="mpOMUe2CQrQYa7WsvBK0-491" target="mpOMUe2CQrQYa7WsvBK0-493">
          <mxGeometry relative="1" as="geometry" />
        </mxCell>
        <mxCell id="mpOMUe2CQrQYa7WsvBK0-491" value="Vægtet gennemsnit: egenproduceret korn til slagtegrisen&lt;br&gt;&amp;nbsp;på CHR nummeret" style="ellipse;whiteSpace=wrap;html=1;aspect=fixed;shadow=0;fontFamily=Helvetica;fontSize=12;align=center;strokeColor=#82b366;fillColor=#d5e8d4;sketch=0;" vertex="1" parent="1">
          <mxGeometry x="5220" y="337" width="110" height="110" as="geometry" />
        </mxCell>
        <mxCell id="mpOMUe2CQrQYa7WsvBK0-492" style="edgeStyle=orthogonalEdgeStyle;rounded=0;orthogonalLoop=1;jettySize=auto;html=1;fontSize=12;endArrow=none;endFill=0;fillColor=#d5e8d4;strokeColor=#82b366;" edge="1" parent="1" source="mpOMUe2CQrQYa7WsvBK0-493" target="mpOMUe2CQrQYa7WsvBK0-486">
          <mxGeometry relative="1" as="geometry" />
        </mxCell>
        <mxCell id="mpOMUe2CQrQYa7WsvBK0-493" value="Vægtet gennemsnit: slagtegrisens aftryk m/u LUC uden egenproduceret korn" style="ellipse;whiteSpace=wrap;html=1;aspect=fixed;shadow=0;fontFamily=Helvetica;fontSize=12;align=center;strokeColor=#82b366;fillColor=#d5e8d4;sketch=0;" vertex="1" parent="1">
          <mxGeometry x="5150" y="491.5" width="130" height="130" as="geometry" />
        </mxCell>
        <mxCell id="mpOMUe2CQrQYa7WsvBK0-514" style="edgeStyle=orthogonalEdgeStyle;rounded=0;orthogonalLoop=1;jettySize=auto;html=1;fontSize=12;endArrow=classic;endFill=1;" edge="1" parent="1" source="mpOMUe2CQrQYa7WsvBK0-494" target="A_WAUtJpo3-AmnUpiRZP-764">
          <mxGeometry relative="1" as="geometry">
            <Array as="points">
              <mxPoint x="5465" y="850" />
              <mxPoint x="4065" y="850" />
            </Array>
          </mxGeometry>
        </mxCell>
        <mxCell id="mpOMUe2CQrQYa7WsvBK0-494" value="Ganges med antallet af FRATS på CHR nummeret" style="rounded=0;whiteSpace=wrap;shadow=0;glass=0;sketch=0;strokeColor=#000000;fontSize=12;fillColor=#FFFFFF;" vertex="1" parent="1">
          <mxGeometry x="5382.75" y="653.87" width="164.5" height="65.25" as="geometry" />
        </mxCell>
        <mxCell id="mpOMUe2CQrQYa7WsvBK0-495" value="FRATS grisen" style="rounded=1;whiteSpace=wrap;html=1;fillColor=#ffe6cc;fontSize=25;strokeColor=#d79b00;" vertex="1" parent="1">
          <mxGeometry x="5350" y="253.75" width="230" height="60" as="geometry" />
        </mxCell>
        <mxCell id="mpOMUe2CQrQYa7WsvBK0-496" style="edgeStyle=orthogonalEdgeStyle;rounded=0;orthogonalLoop=1;jettySize=auto;html=1;fontSize=12;endArrow=classic;endFill=1;fillColor=#ffe6cc;strokeColor=#d79b00;" edge="1" parent="1" source="mpOMUe2CQrQYa7WsvBK0-497" target="mpOMUe2CQrQYa7WsvBK0-501">
          <mxGeometry relative="1" as="geometry" />
        </mxCell>
        <mxCell id="mpOMUe2CQrQYa7WsvBK0-497" value="Vægtet gennemsnit: FRATS CO2e aftryk m/u LUC&lt;br&gt;&amp;nbsp;på CHR nummeret" style="ellipse;whiteSpace=wrap;html=1;aspect=fixed;shadow=0;fontFamily=Helvetica;fontSize=12;align=center;strokeColor=#d79b00;fillColor=#ffe6cc;sketch=0;" vertex="1" parent="1">
          <mxGeometry x="5350" y="337" width="110" height="110" as="geometry" />
        </mxCell>
        <mxCell id="mpOMUe2CQrQYa7WsvBK0-498" style="edgeStyle=orthogonalEdgeStyle;rounded=0;orthogonalLoop=1;jettySize=auto;html=1;fontSize=12;endArrow=classic;endFill=1;fillColor=#ffe6cc;strokeColor=#d79b00;" edge="1" parent="1" source="mpOMUe2CQrQYa7WsvBK0-499" target="mpOMUe2CQrQYa7WsvBK0-501">
          <mxGeometry relative="1" as="geometry" />
        </mxCell>
        <mxCell id="mpOMUe2CQrQYa7WsvBK0-499" value="Vægtet gennemsnit: egenproduceret korn til FRATS&lt;br&gt;&amp;nbsp;på CHR nummeret" style="ellipse;whiteSpace=wrap;html=1;aspect=fixed;shadow=0;fontFamily=Helvetica;fontSize=12;align=center;strokeColor=#d79b00;fillColor=#ffe6cc;sketch=0;" vertex="1" parent="1">
          <mxGeometry x="5470" y="337" width="110" height="110" as="geometry" />
        </mxCell>
        <mxCell id="mpOMUe2CQrQYa7WsvBK0-500" style="edgeStyle=orthogonalEdgeStyle;rounded=0;orthogonalLoop=1;jettySize=auto;html=1;fontSize=12;endArrow=none;endFill=0;fillColor=#ffe6cc;strokeColor=#d79b00;" edge="1" parent="1" source="mpOMUe2CQrQYa7WsvBK0-501" target="mpOMUe2CQrQYa7WsvBK0-494">
          <mxGeometry relative="1" as="geometry" />
        </mxCell>
        <mxCell id="mpOMUe2CQrQYa7WsvBK0-501" value="Vægtet gennemsnit: FRATS aftryk m/u LUC uden egenproduceret korn" style="ellipse;whiteSpace=wrap;html=1;aspect=fixed;shadow=0;fontFamily=Helvetica;fontSize=12;align=center;strokeColor=#d79b00;fillColor=#ffe6cc;sketch=0;" vertex="1" parent="1">
          <mxGeometry x="5400" y="491.5" width="130" height="130" as="geometry" />
        </mxCell>
        <mxCell id="mpOMUe2CQrQYa7WsvBK0-515" value="Vægtet gennemsnit: grisens CO2e aftryk m/u LUC&lt;br&gt;&amp;nbsp;på CHR nummeret" style="ellipse;whiteSpace=wrap;html=1;aspect=fixed;shadow=0;fontFamily=Helvetica;fontSize=12;align=center;strokeColor=#d6b656;fillColor=#fff2cc;sketch=0;" vertex="1" parent="1">
          <mxGeometry x="2610" y="980" width="110" height="110" as="geometry" />
        </mxCell>
        <mxCell id="mpOMUe2CQrQYa7WsvBK0-516" value="Vægtet gennemsnit: egenproduceret korn til grisen&lt;br&gt;&amp;nbsp;på CHR nummeret" style="ellipse;whiteSpace=wrap;html=1;aspect=fixed;shadow=0;fontFamily=Helvetica;fontSize=12;align=center;strokeColor=#d6b656;fillColor=#fff2cc;sketch=0;" vertex="1" parent="1">
          <mxGeometry x="2747.25" y="980" width="110" height="110" as="geometry" />
        </mxCell>
      </root>
    </mxGraphModel>
  </diagram>
</mxfile>
